<?xml version="1.0" encoding="UTF-8" standalone="no"?>
<!DOCTYPE svg PUBLIC "-//W3C//DTD SVG 1.1//EN"
 "http://www.w3.org/Graphics/SVG/1.1/DTD/svg11.dtd">
<!-- Generated by graphviz version 2.40.1 (20161225.0304)
 -->
<!-- Title: G Pages: 1 -->
<svg width="1596pt" height="3646pt"
 viewBox="0.00 0.00 1595.79 3646.00" xmlns="http://www.w3.org/2000/svg" xmlns:xlink="http://www.w3.org/1999/xlink">
<g id="graph0" class="graph" transform="scale(1 1) rotate(0) translate(4 3641.9959)">
<title>G</title>
<polygon fill="#ffffff" stroke="transparent" points="-4,4 -4,-3641.9959 1591.7924,-3641.9959 1591.7924,4 -4,4"/>
<g id="clust1" class="cluster">
<title>cluster_Global</title>
<path fill="none" stroke="#c0c0c0" d="M829.222,-643.9959C829.222,-643.9959 1567.7924,-643.9959 1567.7924,-643.9959 1573.7924,-643.9959 1579.7924,-649.9959 1579.7924,-655.9959 1579.7924,-655.9959 1579.7924,-3617.9959 1579.7924,-3617.9959 1579.7924,-3623.9959 1573.7924,-3629.9959 1567.7924,-3629.9959 1567.7924,-3629.9959 829.222,-3629.9959 829.222,-3629.9959 823.222,-3629.9959 817.222,-3623.9959 817.222,-3617.9959 817.222,-3617.9959 817.222,-655.9959 817.222,-655.9959 817.222,-649.9959 823.222,-643.9959 829.222,-643.9959"/>
<text text-anchor="middle" x="1198.5072" y="-3617.1959" font-family="Times,serif" font-size="11.00" fill="#c0c0c0">Global</text>
</g>
<g id="clust2" class="cluster">
<title>cluster_\AppBundle</title>
<path fill="none" stroke="#c0c0c0" d="M837.222,-651.9959C837.222,-651.9959 1559.7924,-651.9959 1559.7924,-651.9959 1565.7924,-651.9959 1571.7924,-657.9959 1571.7924,-663.9959 1571.7924,-663.9959 1571.7924,-3589.9959 1571.7924,-3589.9959 1571.7924,-3595.9959 1565.7924,-3601.9959 1559.7924,-3601.9959 1559.7924,-3601.9959 837.222,-3601.9959 837.222,-3601.9959 831.222,-3601.9959 825.222,-3595.9959 825.222,-3589.9959 825.222,-3589.9959 825.222,-663.9959 825.222,-663.9959 825.222,-657.9959 831.222,-651.9959 837.222,-651.9959"/>
<text text-anchor="middle" x="1198.5072" y="-3589.1959" font-family="Times,serif" font-size="11.00" fill="#c0c0c0">AppBundle</text>
</g>
<g id="clust3" class="cluster">
<title>cluster_\AppBundle\Models</title>
<path fill="none" stroke="#c0c0c0" d="M1408.2924,-3285.9959C1408.2924,-3285.9959 1504.2924,-3285.9959 1504.2924,-3285.9959 1510.2924,-3285.9959 1516.2924,-3291.9959 1516.2924,-3297.9959 1516.2924,-3297.9959 1516.2924,-3561.9959 1516.2924,-3561.9959 1516.2924,-3567.9959 1510.2924,-3573.9959 1504.2924,-3573.9959 1504.2924,-3573.9959 1408.2924,-3573.9959 1408.2924,-3573.9959 1402.2924,-3573.9959 1396.2924,-3567.9959 1396.2924,-3561.9959 1396.2924,-3561.9959 1396.2924,-3297.9959 1396.2924,-3297.9959 1396.2924,-3291.9959 1402.2924,-3285.9959 1408.2924,-3285.9959"/>
<text text-anchor="middle" x="1456.2924" y="-3561.1959" font-family="Times,serif" font-size="11.00" fill="#c0c0c0">Models</text>
</g>
<g id="clust4" class="cluster">
<title>cluster_\AppBundle\Repository</title>
<path fill="none" stroke="#c0c0c0" d="M845.222,-2989.9959C845.222,-2989.9959 1531.2924,-2989.9959 1531.2924,-2989.9959 1537.2924,-2989.9959 1543.2924,-2995.9959 1543.2924,-3001.9959 1543.2924,-3001.9959 1543.2924,-3265.9959 1543.2924,-3265.9959 1543.2924,-3271.9959 1537.2924,-3277.9959 1531.2924,-3277.9959 1531.2924,-3277.9959 845.222,-3277.9959 845.222,-3277.9959 839.222,-3277.9959 833.222,-3271.9959 833.222,-3265.9959 833.222,-3265.9959 833.222,-3001.9959 833.222,-3001.9959 833.222,-2995.9959 839.222,-2989.9959 845.222,-2989.9959"/>
<text text-anchor="middle" x="1188.2572" y="-3265.1959" font-family="Times,serif" font-size="11.00" fill="#c0c0c0">Repository</text>
</g>
<g id="clust5" class="cluster">
<title>cluster_\AppBundle\Exceptions</title>
<path fill="none" stroke="#c0c0c0" d="M1360.7924,-2343.9959C1360.7924,-2343.9959 1551.7924,-2343.9959 1551.7924,-2343.9959 1557.7924,-2343.9959 1563.7924,-2349.9959 1563.7924,-2355.9959 1563.7924,-2355.9959 1563.7924,-2511.9959 1563.7924,-2511.9959 1563.7924,-2517.9959 1557.7924,-2523.9959 1551.7924,-2523.9959 1551.7924,-2523.9959 1360.7924,-2523.9959 1360.7924,-2523.9959 1354.7924,-2523.9959 1348.7924,-2517.9959 1348.7924,-2511.9959 1348.7924,-2511.9959 1348.7924,-2355.9959 1348.7924,-2355.9959 1348.7924,-2349.9959 1354.7924,-2343.9959 1360.7924,-2343.9959"/>
<text text-anchor="middle" x="1456.2924" y="-2511.1959" font-family="Times,serif" font-size="11.00" fill="#c0c0c0">Exceptions</text>
</g>
<g id="clust6" class="cluster">
<title>cluster_\AppBundle\Entity</title>
<path fill="none" stroke="#c0c0c0" d="M912.722,-2531.9959C912.722,-2531.9959 1497.7924,-2531.9959 1497.7924,-2531.9959 1503.7924,-2531.9959 1509.7924,-2537.9959 1509.7924,-2543.9959 1509.7924,-2543.9959 1509.7924,-2969.9959 1509.7924,-2969.9959 1509.7924,-2975.9959 1503.7924,-2981.9959 1497.7924,-2981.9959 1497.7924,-2981.9959 912.722,-2981.9959 912.722,-2981.9959 906.722,-2981.9959 900.722,-2975.9959 900.722,-2969.9959 900.722,-2969.9959 900.722,-2543.9959 900.722,-2543.9959 900.722,-2537.9959 906.722,-2531.9959 912.722,-2531.9959"/>
<text text-anchor="middle" x="1205.2572" y="-2969.1959" font-family="Times,serif" font-size="11.00" fill="#c0c0c0">Entity</text>
</g>
<g id="clust7" class="cluster">
<title>cluster_\AppBundle\Services</title>
<path fill="none" stroke="#c0c0c0" d="M1401.2924,-1993.9959C1401.2924,-1993.9959 1511.2924,-1993.9959 1511.2924,-1993.9959 1517.2924,-1993.9959 1523.2924,-1999.9959 1523.2924,-2005.9959 1523.2924,-2005.9959 1523.2924,-2323.9959 1523.2924,-2323.9959 1523.2924,-2329.9959 1517.2924,-2335.9959 1511.2924,-2335.9959 1511.2924,-2335.9959 1401.2924,-2335.9959 1401.2924,-2335.9959 1395.2924,-2335.9959 1389.2924,-2329.9959 1389.2924,-2323.9959 1389.2924,-2323.9959 1389.2924,-2005.9959 1389.2924,-2005.9959 1389.2924,-1999.9959 1395.2924,-1993.9959 1401.2924,-1993.9959"/>
<text text-anchor="middle" x="1456.2924" y="-2323.1959" font-family="Times,serif" font-size="11.00" fill="#c0c0c0">Services</text>
</g>
<g id="clust8" class="cluster">
<title>cluster_\AppBundle\DataFixtures</title>
<path fill="none" stroke="#c0c0c0" d="M1389.7924,-1715.9959C1389.7924,-1715.9959 1522.7924,-1715.9959 1522.7924,-1715.9959 1528.7924,-1715.9959 1534.7924,-1721.9959 1534.7924,-1727.9959 1534.7924,-1727.9959 1534.7924,-1973.9959 1534.7924,-1973.9959 1534.7924,-1979.9959 1528.7924,-1985.9959 1522.7924,-1985.9959 1522.7924,-1985.9959 1389.7924,-1985.9959 1389.7924,-1985.9959 1383.7924,-1985.9959 1377.7924,-1979.9959 1377.7924,-1973.9959 1377.7924,-1973.9959 1377.7924,-1727.9959 1377.7924,-1727.9959 1377.7924,-1721.9959 1383.7924,-1715.9959 1389.7924,-1715.9959"/>
<text text-anchor="middle" x="1456.2924" y="-1973.1959" font-family="Times,serif" font-size="11.00" fill="#c0c0c0">DataFixtures</text>
</g>
<g id="clust9" class="cluster">
<title>cluster_\AppBundle\DataFixtures\ORM</title>
<path fill="none" stroke="#c0c0c0" d="M1397.7924,-1723.9959C1397.7924,-1723.9959 1514.7924,-1723.9959 1514.7924,-1723.9959 1520.7924,-1723.9959 1526.7924,-1729.9959 1526.7924,-1735.9959 1526.7924,-1735.9959 1526.7924,-1945.9959 1526.7924,-1945.9959 1526.7924,-1951.9959 1520.7924,-1957.9959 1514.7924,-1957.9959 1514.7924,-1957.9959 1397.7924,-1957.9959 1397.7924,-1957.9959 1391.7924,-1957.9959 1385.7924,-1951.9959 1385.7924,-1945.9959 1385.7924,-1945.9959 1385.7924,-1735.9959 1385.7924,-1735.9959 1385.7924,-1729.9959 1391.7924,-1723.9959 1397.7924,-1723.9959"/>
<text text-anchor="middle" x="1456.2924" y="-1945.1959" font-family="Times,serif" font-size="11.00" fill="#c0c0c0">ORM</text>
</g>
<g id="clust10" class="cluster">
<title>cluster_\AppBundle\Controller</title>
<path fill="none" stroke="#c0c0c0" d="M1386.7924,-1251.9959C1386.7924,-1251.9959 1525.7924,-1251.9959 1525.7924,-1251.9959 1531.7924,-1251.9959 1537.7924,-1257.9959 1537.7924,-1263.9959 1537.7924,-1263.9959 1537.7924,-1695.9959 1537.7924,-1695.9959 1537.7924,-1701.9959 1531.7924,-1707.9959 1525.7924,-1707.9959 1525.7924,-1707.9959 1386.7924,-1707.9959 1386.7924,-1707.9959 1380.7924,-1707.9959 1374.7924,-1701.9959 1374.7924,-1695.9959 1374.7924,-1695.9959 1374.7924,-1263.9959 1374.7924,-1263.9959 1374.7924,-1257.9959 1380.7924,-1251.9959 1386.7924,-1251.9959"/>
<text text-anchor="middle" x="1456.2924" y="-1695.1959" font-family="Times,serif" font-size="11.00" fill="#c0c0c0">Controller</text>
</g>
<g id="clust11" class="cluster">
<title>cluster_\AppBundle\Controller\Thesis</title>
<path fill="none" stroke="#c0c0c0" d="M1397.7924,-1499.9959C1397.7924,-1499.9959 1514.7924,-1499.9959 1514.7924,-1499.9959 1520.7924,-1499.9959 1526.7924,-1505.9959 1526.7924,-1511.9959 1526.7924,-1511.9959 1526.7924,-1667.9959 1526.7924,-1667.9959 1526.7924,-1673.9959 1520.7924,-1679.9959 1514.7924,-1679.9959 1514.7924,-1679.9959 1397.7924,-1679.9959 1397.7924,-1679.9959 1391.7924,-1679.9959 1385.7924,-1673.9959 1385.7924,-1667.9959 1385.7924,-1667.9959 1385.7924,-1511.9959 1385.7924,-1511.9959 1385.7924,-1505.9959 1391.7924,-1499.9959 1397.7924,-1499.9959"/>
<text text-anchor="middle" x="1456.2924" y="-1667.1959" font-family="Times,serif" font-size="11.00" fill="#c0c0c0">Thesis</text>
</g>
<g id="clust12" class="cluster">
<title>cluster_\AppBundle\Controller\Common</title>
<path fill="none" stroke="#c0c0c0" d="M1394.7924,-1419.9959C1394.7924,-1419.9959 1517.7924,-1419.9959 1517.7924,-1419.9959 1523.7924,-1419.9959 1529.7924,-1425.9959 1529.7924,-1431.9959 1529.7924,-1431.9959 1529.7924,-1479.9959 1529.7924,-1479.9959 1529.7924,-1485.9959 1523.7924,-1491.9959 1517.7924,-1491.9959 1517.7924,-1491.9959 1394.7924,-1491.9959 1394.7924,-1491.9959 1388.7924,-1491.9959 1382.7924,-1485.9959 1382.7924,-1479.9959 1382.7924,-1479.9959 1382.7924,-1431.9959 1382.7924,-1431.9959 1382.7924,-1425.9959 1388.7924,-1419.9959 1394.7924,-1419.9959"/>
<text text-anchor="middle" x="1456.2924" y="-1479.1959" font-family="Times,serif" font-size="11.00" fill="#c0c0c0">Common</text>
</g>
<g id="clust13" class="cluster">
<title>cluster_\AppBundle\Controller\Security</title>
<path fill="none" stroke="#c0c0c0" d="M1404.7924,-1339.9959C1404.7924,-1339.9959 1507.7924,-1339.9959 1507.7924,-1339.9959 1513.7924,-1339.9959 1519.7924,-1345.9959 1519.7924,-1351.9959 1519.7924,-1351.9959 1519.7924,-1399.9959 1519.7924,-1399.9959 1519.7924,-1405.9959 1513.7924,-1411.9959 1507.7924,-1411.9959 1507.7924,-1411.9959 1404.7924,-1411.9959 1404.7924,-1411.9959 1398.7924,-1411.9959 1392.7924,-1405.9959 1392.7924,-1399.9959 1392.7924,-1399.9959 1392.7924,-1351.9959 1392.7924,-1351.9959 1392.7924,-1345.9959 1398.7924,-1339.9959 1404.7924,-1339.9959"/>
<text text-anchor="middle" x="1456.2924" y="-1399.1959" font-family="Times,serif" font-size="11.00" fill="#c0c0c0">Security</text>
</g>
<g id="clust14" class="cluster">
<title>cluster_\AppBundle\Controller\Topics</title>
<path fill="none" stroke="#c0c0c0" d="M1397.7924,-1259.9959C1397.7924,-1259.9959 1514.7924,-1259.9959 1514.7924,-1259.9959 1520.7924,-1259.9959 1526.7924,-1265.9959 1526.7924,-1271.9959 1526.7924,-1271.9959 1526.7924,-1319.9959 1526.7924,-1319.9959 1526.7924,-1325.9959 1520.7924,-1331.9959 1514.7924,-1331.9959 1514.7924,-1331.9959 1397.7924,-1331.9959 1397.7924,-1331.9959 1391.7924,-1331.9959 1385.7924,-1325.9959 1385.7924,-1319.9959 1385.7924,-1319.9959 1385.7924,-1271.9959 1385.7924,-1271.9959 1385.7924,-1265.9959 1391.7924,-1259.9959 1397.7924,-1259.9959"/>
<text text-anchor="middle" x="1456.2924" y="-1319.1959" font-family="Times,serif" font-size="11.00" fill="#c0c0c0">Topics</text>
</g>
<g id="clust15" class="cluster">
<title>cluster_\AppBundle\Serializer</title>
<path fill="none" stroke="#c0c0c0" d="M1389.7924,-1027.9959C1389.7924,-1027.9959 1522.7924,-1027.9959 1522.7924,-1027.9959 1528.7924,-1027.9959 1534.7924,-1033.9959 1534.7924,-1039.9959 1534.7924,-1039.9959 1534.7924,-1231.9959 1534.7924,-1231.9959 1534.7924,-1237.9959 1528.7924,-1243.9959 1522.7924,-1243.9959 1522.7924,-1243.9959 1389.7924,-1243.9959 1389.7924,-1243.9959 1383.7924,-1243.9959 1377.7924,-1237.9959 1377.7924,-1231.9959 1377.7924,-1231.9959 1377.7924,-1039.9959 1377.7924,-1039.9959 1377.7924,-1033.9959 1383.7924,-1027.9959 1389.7924,-1027.9959"/>
<text text-anchor="middle" x="1456.2924" y="-1231.1959" font-family="Times,serif" font-size="11.00" fill="#c0c0c0">Serializer</text>
</g>
<g id="clust16" class="cluster">
<title>cluster_\AppBundle\Serializer\Normalizer</title>
<path fill="none" stroke="#c0c0c0" d="M1397.7924,-1035.9959C1397.7924,-1035.9959 1514.7924,-1035.9959 1514.7924,-1035.9959 1520.7924,-1035.9959 1526.7924,-1041.9959 1526.7924,-1047.9959 1526.7924,-1047.9959 1526.7924,-1203.9959 1526.7924,-1203.9959 1526.7924,-1209.9959 1520.7924,-1215.9959 1514.7924,-1215.9959 1514.7924,-1215.9959 1397.7924,-1215.9959 1397.7924,-1215.9959 1391.7924,-1215.9959 1385.7924,-1209.9959 1385.7924,-1203.9959 1385.7924,-1203.9959 1385.7924,-1047.9959 1385.7924,-1047.9959 1385.7924,-1041.9959 1391.7924,-1035.9959 1397.7924,-1035.9959"/>
<text text-anchor="middle" x="1456.2924" y="-1203.1959" font-family="Times,serif" font-size="11.00" fill="#c0c0c0">Normalizer</text>
</g>
<g id="clust17" class="cluster">
<title>cluster_\AppBundle\Security</title>
<path fill="none" stroke="#c0c0c0" d="M1386.7924,-785.9959C1386.7924,-785.9959 1525.7924,-785.9959 1525.7924,-785.9959 1531.7924,-785.9959 1537.7924,-791.9959 1537.7924,-797.9959 1537.7924,-797.9959 1537.7924,-1007.9959 1537.7924,-1007.9959 1537.7924,-1013.9959 1531.7924,-1019.9959 1525.7924,-1019.9959 1525.7924,-1019.9959 1386.7924,-1019.9959 1386.7924,-1019.9959 1380.7924,-1019.9959 1374.7924,-1013.9959 1374.7924,-1007.9959 1374.7924,-1007.9959 1374.7924,-797.9959 1374.7924,-797.9959 1374.7924,-791.9959 1380.7924,-785.9959 1386.7924,-785.9959"/>
<text text-anchor="middle" x="1456.2924" y="-1007.1959" font-family="Times,serif" font-size="11.00" fill="#c0c0c0">Security</text>
</g>
<g id="clust18" class="cluster">
<title>cluster_\AppBundle\Security\Voters</title>
<path fill="none" stroke="#c0c0c0" d="M1414.7924,-919.9959C1414.7924,-919.9959 1497.7924,-919.9959 1497.7924,-919.9959 1503.7924,-919.9959 1509.7924,-925.9959 1509.7924,-931.9959 1509.7924,-931.9959 1509.7924,-979.9959 1509.7924,-979.9959 1509.7924,-985.9959 1503.7924,-991.9959 1497.7924,-991.9959 1497.7924,-991.9959 1414.7924,-991.9959 1414.7924,-991.9959 1408.7924,-991.9959 1402.7924,-985.9959 1402.7924,-979.9959 1402.7924,-979.9959 1402.7924,-931.9959 1402.7924,-931.9959 1402.7924,-925.9959 1408.7924,-919.9959 1414.7924,-919.9959"/>
<text text-anchor="middle" x="1456.2924" y="-979.1959" font-family="Times,serif" font-size="11.00" fill="#c0c0c0">Voters</text>
</g>
<g id="clust19" class="cluster">
<title>cluster_\AppBundle\Security\User</title>
<path fill="none" stroke="#c0c0c0" d="M1394.7924,-839.9959C1394.7924,-839.9959 1517.7924,-839.9959 1517.7924,-839.9959 1523.7924,-839.9959 1529.7924,-845.9959 1529.7924,-851.9959 1529.7924,-851.9959 1529.7924,-899.9959 1529.7924,-899.9959 1529.7924,-905.9959 1523.7924,-911.9959 1517.7924,-911.9959 1517.7924,-911.9959 1394.7924,-911.9959 1394.7924,-911.9959 1388.7924,-911.9959 1382.7924,-905.9959 1382.7924,-899.9959 1382.7924,-899.9959 1382.7924,-851.9959 1382.7924,-851.9959 1382.7924,-845.9959 1388.7924,-839.9959 1394.7924,-839.9959"/>
<text text-anchor="middle" x="1456.2924" y="-899.1959" font-family="Times,serif" font-size="11.00" fill="#c0c0c0">User</text>
</g>
<g id="clust20" class="cluster">
<title>cluster_\AppBundle\Factory</title>
<path fill="none" stroke="#c0c0c0" d="M1414.7924,-705.9959C1414.7924,-705.9959 1497.7924,-705.9959 1497.7924,-705.9959 1503.7924,-705.9959 1509.7924,-711.9959 1509.7924,-717.9959 1509.7924,-717.9959 1509.7924,-765.9959 1509.7924,-765.9959 1509.7924,-771.9959 1503.7924,-777.9959 1497.7924,-777.9959 1497.7924,-777.9959 1414.7924,-777.9959 1414.7924,-777.9959 1408.7924,-777.9959 1402.7924,-771.9959 1402.7924,-765.9959 1402.7924,-765.9959 1402.7924,-717.9959 1402.7924,-717.9959 1402.7924,-711.9959 1408.7924,-705.9959 1414.7924,-705.9959"/>
<text text-anchor="middle" x="1456.2924" y="-765.1959" font-family="Times,serif" font-size="11.00" fill="#c0c0c0">Factory</text>
</g>
<!-- \\AppBundle\\Models\\UserModel -->
<g id="node1" class="node">
<title>\\AppBundle\\Models\\UserModel</title>
<polygon fill="none" stroke="#000000" points="1494.7924,-3545.9959 1417.7924,-3545.9959 1417.7924,-3509.9959 1494.7924,-3509.9959 1494.7924,-3545.9959"/>
<text text-anchor="middle" x="1456.2924" y="-3525.1959" font-family="Courier,monospace" font-size="11.00" fill="#000000">UserModel</text>
</g>
<!-- \\AppBundle\\Models\\FeedbackModel -->
<g id="node2" class="node">
<title>\\AppBundle\\Models\\FeedbackModel</title>
<polygon fill="none" stroke="#000000" points="1508.2924,-3491.9959 1404.2924,-3491.9959 1404.2924,-3455.9959 1508.2924,-3455.9959 1508.2924,-3491.9959"/>
<text text-anchor="middle" x="1456.2924" y="-3471.1959" font-family="Courier,monospace" font-size="11.00" fill="#000000">FeedbackModel</text>
</g>
<!-- \\AppBundle\\Models\\Degree -->
<g id="node3" class="node">
<title>\\AppBundle\\Models\\Degree</title>
<polygon fill="none" stroke="#000000" points="1484.7924,-3437.9959 1427.7924,-3437.9959 1427.7924,-3401.9959 1484.7924,-3401.9959 1484.7924,-3437.9959"/>
<text text-anchor="middle" x="1456.2924" y="-3417.1959" font-family="Courier,monospace" font-size="11.00" fill="#000000">Degree</text>
</g>
<!-- \\AppBundle\\Models\\DraftModel -->
<g id="node4" class="node">
<title>\\AppBundle\\Models\\DraftModel</title>
<polygon fill="none" stroke="#000000" points="1498.2924,-3383.9959 1414.2924,-3383.9959 1414.2924,-3347.9959 1498.2924,-3347.9959 1498.2924,-3383.9959"/>
<text text-anchor="middle" x="1456.2924" y="-3363.1959" font-family="Courier,monospace" font-size="11.00" fill="#000000">DraftModel</text>
</g>
<!-- \\AppBundle\\Models\\ReviewModel -->
<g id="node5" class="node">
<title>\\AppBundle\\Models\\ReviewModel</title>
<polygon fill="none" stroke="#000000" points="1501.7924,-3329.9959 1410.7924,-3329.9959 1410.7924,-3293.9959 1501.7924,-3293.9959 1501.7924,-3329.9959"/>
<text text-anchor="middle" x="1456.2924" y="-3309.1959" font-family="Courier,monospace" font-size="11.00" fill="#000000">ReviewModel</text>
</g>
<!-- \\AppBundle\\Repository\\FeedbackRepository -->
<g id="node6" class="node">
<title>\\AppBundle\\Repository\\FeedbackRepository</title>
<polygon fill="none" stroke="#000000" points="1525.2924,-3249.9959 1387.2924,-3249.9959 1387.2924,-3213.9959 1525.2924,-3213.9959 1525.2924,-3249.9959"/>
<text text-anchor="middle" x="1456.2924" y="-3229.1959" font-family="Courier,monospace" font-size="11.00" fill="#000000">FeedbackRepository</text>
</g>
<!-- \\AppBundle\\Repository\\FeedbackRepositoryInterface -->
<g id="node15" class="node">
<title>\\AppBundle\\Repository\\FeedbackRepositoryInterface</title>
<polygon fill="none" stroke="#000000" points="1050.222,-3249.9959 851.222,-3249.9959 851.222,-3213.9959 1050.222,-3213.9959 1050.222,-3249.9959"/>
<text text-anchor="middle" x="950.722" y="-3229.1959" font-family="Courier,monospace" font-size="11.00" fill="#000000">FeedbackRepositoryInterface</text>
</g>
<!-- \\AppBundle\\Repository\\FeedbackRepository&#45;&gt;\\AppBundle\\Repository\\FeedbackRepositoryInterface -->
<g id="edge12" class="edge">
<title>\\AppBundle\\Repository\\FeedbackRepository&#45;&gt;\\AppBundle\\Repository\\FeedbackRepositoryInterface</title>
<path fill="none" stroke="#000000" stroke-dasharray="1,5" d="M1387.0551,-3231.9959C1302.8661,-3231.9959 1159.7454,-3231.9959 1060.481,-3231.9959"/>
<polygon fill="none" stroke="#000000" points="1060.4131,-3228.496 1050.4131,-3231.9959 1060.4131,-3235.496 1060.4131,-3228.496"/>
</g>
<!-- \\Doctrine\\ORM\\EntityRepository -->
<g id="node60" class="node">
<title>\\Doctrine\\ORM\\EntityRepository</title>
<ellipse fill="none" stroke="#000000" cx="950.722" cy="-617.9959" rx="163.2712" ry="18"/>
<text text-anchor="middle" x="950.722" y="-614.2959" font-family="Times,serif" font-size="14.00" fill="#c0c0c0">\Doctrine\ORM\EntityRepository</text>
</g>
<!-- \\AppBundle\\Repository\\FeedbackRepository&#45;&gt;\\Doctrine\\ORM\\EntityRepository -->
<g id="edge11" class="edge">
<title>\\AppBundle\\Repository\\FeedbackRepository&#45;&gt;\\Doctrine\\ORM\\EntityRepository</title>
<path fill="none" stroke="#000000" d="M1387.1099,-3227.5841C1372.5465,-3223.4272 1358.6329,-3216.4564 1348.7924,-3204.9959 1250.349,-3090.3455 1304.937,-2677.7623 1284.7924,-2527.9959 1180.9491,-1755.967 991.8762,-819.0252 956.5047,-646.1196"/>
<polygon fill="none" stroke="#000000" points="959.9232,-645.3664 954.4873,-636.2724 953.0656,-646.7714 959.9232,-645.3664"/>
</g>
<!-- \\AppBundle\\Repository\\ReviewRepository -->
<g id="node7" class="node">
<title>\\AppBundle\\Repository\\ReviewRepository</title>
<polygon fill="none" stroke="#000000" points="1518.7924,-3195.9959 1393.7924,-3195.9959 1393.7924,-3159.9959 1518.7924,-3159.9959 1518.7924,-3195.9959"/>
<text text-anchor="middle" x="1456.2924" y="-3175.1959" font-family="Courier,monospace" font-size="11.00" fill="#000000">ReviewRepository</text>
</g>
<!-- \\AppBundle\\Repository\\ReviewRepositoryInterface -->
<g id="node13" class="node">
<title>\\AppBundle\\Repository\\ReviewRepositoryInterface</title>
<polygon fill="none" stroke="#000000" points="1043.222,-3195.9959 858.222,-3195.9959 858.222,-3159.9959 1043.222,-3159.9959 1043.222,-3195.9959"/>
<text text-anchor="middle" x="950.722" y="-3175.1959" font-family="Courier,monospace" font-size="11.00" fill="#000000">ReviewRepositoryInterface</text>
</g>
<!-- \\AppBundle\\Repository\\ReviewRepository&#45;&gt;\\AppBundle\\Repository\\ReviewRepositoryInterface -->
<g id="edge22" class="edge">
<title>\\AppBundle\\Repository\\ReviewRepository&#45;&gt;\\AppBundle\\Repository\\ReviewRepositoryInterface</title>
<path fill="none" stroke="#000000" stroke-dasharray="1,5" d="M1393.5383,-3177.9959C1308.4434,-3177.9959 1155.4005,-3177.9959 1053.4302,-3177.9959"/>
<polygon fill="none" stroke="#000000" points="1053.4178,-3174.496 1043.4178,-3177.9959 1053.4178,-3181.496 1053.4178,-3174.496"/>
</g>
<!-- \\AppBundle\\Repository\\ReviewRepository&#45;&gt;\\Doctrine\\ORM\\EntityRepository -->
<g id="edge21" class="edge">
<title>\\AppBundle\\Repository\\ReviewRepository&#45;&gt;\\Doctrine\\ORM\\EntityRepository</title>
<path fill="none" stroke="#000000" d="M1393.6086,-3175.1772C1376.7795,-3171.3138 1360.1277,-3164.0895 1348.7924,-3150.9959 1257.7009,-3045.7747 1303.9046,-2665.8504 1284.7924,-2527.9959 1177.8175,-1756.3947 991.2745,-819.1074 956.418,-646.1314"/>
<polygon fill="none" stroke="#000000" points="959.8391,-645.3903 954.4302,-636.2802 952.9773,-646.7749 959.8391,-645.3903"/>
</g>
<!-- \\AppBundle\\Repository\\ReservationRepository -->
<g id="node8" class="node">
<title>\\AppBundle\\Repository\\ReservationRepository</title>
<polygon fill="none" stroke="#000000" points="1535.2924,-3141.9959 1377.2924,-3141.9959 1377.2924,-3105.9959 1535.2924,-3105.9959 1535.2924,-3141.9959"/>
<text text-anchor="middle" x="1456.2924" y="-3121.1959" font-family="Courier,monospace" font-size="11.00" fill="#000000">ReservationRepository</text>
</g>
<!-- \\AppBundle\\Repository\\ReservationRepositoryInterface -->
<g id="node11" class="node">
<title>\\AppBundle\\Repository\\ReservationRepositoryInterface</title>
<polygon fill="none" stroke="#000000" points="1060.222,-3141.9959 841.222,-3141.9959 841.222,-3105.9959 1060.222,-3105.9959 1060.222,-3141.9959"/>
<text text-anchor="middle" x="950.722" y="-3121.1959" font-family="Courier,monospace" font-size="11.00" fill="#000000">ReservationRepositoryInterface</text>
</g>
<!-- \\AppBundle\\Repository\\ReservationRepository&#45;&gt;\\AppBundle\\Repository\\ReservationRepositoryInterface -->
<g id="edge34" class="edge">
<title>\\AppBundle\\Repository\\ReservationRepository&#45;&gt;\\AppBundle\\Repository\\ReservationRepositoryInterface</title>
<path fill="none" stroke="#000000" stroke-dasharray="1,5" d="M1377.0191,-3123.9959C1294.8378,-3123.9959 1165.3745,-3123.9959 1070.6645,-3123.9959"/>
<polygon fill="none" stroke="#000000" points="1070.454,-3120.496 1060.454,-3123.9959 1070.454,-3127.496 1070.454,-3120.496"/>
</g>
<!-- \\AppBundle\\Repository\\ReservationRepository&#45;&gt;\\Doctrine\\ORM\\EntityRepository -->
<g id="edge33" class="edge">
<title>\\AppBundle\\Repository\\ReservationRepository&#45;&gt;\\Doctrine\\ORM\\EntityRepository</title>
<path fill="none" stroke="#000000" d="M1377.1028,-3116.0364C1366.3333,-3111.7895 1356.3913,-3105.6884 1348.7924,-3096.9959 1265.0476,-3001.1978 1302.8732,-2653.9465 1284.7924,-2527.9959 1174.1005,-1756.9191 990.5603,-819.2082 956.315,-646.1459"/>
<polygon fill="none" stroke="#000000" points="959.7391,-645.4189 954.3624,-636.2897 952.8726,-646.7793 959.7391,-645.4189"/>
</g>
<!-- \\AppBundle\\Repository\\DraftRepository -->
<g id="node9" class="node">
<title>\\AppBundle\\Repository\\DraftRepository</title>
<polygon fill="none" stroke="#000000" points="1515.2924,-3087.9959 1397.2924,-3087.9959 1397.2924,-3051.9959 1515.2924,-3051.9959 1515.2924,-3087.9959"/>
<text text-anchor="middle" x="1456.2924" y="-3067.1959" font-family="Courier,monospace" font-size="11.00" fill="#000000">DraftRepository</text>
</g>
<!-- \\AppBundle\\Repository\\DraftRepositoryInterface -->
<g id="node14" class="node">
<title>\\AppBundle\\Repository\\DraftRepositoryInterface</title>
<polygon fill="none" stroke="#000000" points="1040.222,-3087.9959 861.222,-3087.9959 861.222,-3051.9959 1040.222,-3051.9959 1040.222,-3087.9959"/>
<text text-anchor="middle" x="950.722" y="-3067.1959" font-family="Courier,monospace" font-size="11.00" fill="#000000">DraftRepositoryInterface</text>
</g>
<!-- \\AppBundle\\Repository\\DraftRepository&#45;&gt;\\AppBundle\\Repository\\DraftRepositoryInterface -->
<g id="edge37" class="edge">
<title>\\AppBundle\\Repository\\DraftRepository&#45;&gt;\\AppBundle\\Repository\\DraftRepositoryInterface</title>
<path fill="none" stroke="#000000" stroke-dasharray="1,5" d="M1396.8104,-3069.9959C1311.6806,-3069.9959 1154.0007,-3069.9959 1050.7405,-3069.9959"/>
<polygon fill="none" stroke="#000000" points="1050.6106,-3066.496 1040.6106,-3069.9959 1050.6105,-3073.496 1050.6106,-3066.496"/>
</g>
<!-- \\AppBundle\\Repository\\DraftRepository&#45;&gt;\\Doctrine\\ORM\\EntityRepository -->
<g id="edge36" class="edge">
<title>\\AppBundle\\Repository\\DraftRepository&#45;&gt;\\Doctrine\\ORM\\EntityRepository</title>
<path fill="none" stroke="#000000" d="M1397.1485,-3067.7543C1379.2082,-3064.0892 1361.0313,-3056.833 1348.7924,-3042.9959 1272.3872,-2956.6127 1301.8434,-2642.0532 1284.7924,-2527.9959 1169.6183,-1757.5759 989.699,-819.3344 956.1909,-646.1641"/>
<polygon fill="none" stroke="#000000" points="959.6185,-645.4537 954.2807,-636.3017 952.7462,-646.7848 959.6185,-645.4537"/>
</g>
<!-- \\AppBundle\\Repository\\ThesisRepository -->
<g id="node10" class="node">
<title>\\AppBundle\\Repository\\ThesisRepository</title>
<polygon fill="none" stroke="#000000" points="1518.7924,-3033.9959 1393.7924,-3033.9959 1393.7924,-2997.9959 1518.7924,-2997.9959 1518.7924,-3033.9959"/>
<text text-anchor="middle" x="1456.2924" y="-3013.1959" font-family="Courier,monospace" font-size="11.00" fill="#000000">ThesisRepository</text>
</g>
<!-- \\AppBundle\\Repository\\ThesisRepositoryInterface -->
<g id="node12" class="node">
<title>\\AppBundle\\Repository\\ThesisRepositoryInterface</title>
<polygon fill="none" stroke="#000000" points="1043.222,-3033.9959 858.222,-3033.9959 858.222,-2997.9959 1043.222,-2997.9959 1043.222,-3033.9959"/>
<text text-anchor="middle" x="950.722" y="-3013.1959" font-family="Courier,monospace" font-size="11.00" fill="#000000">ThesisRepositoryInterface</text>
</g>
<!-- \\AppBundle\\Repository\\ThesisRepository&#45;&gt;\\AppBundle\\Repository\\ThesisRepositoryInterface -->
<g id="edge44" class="edge">
<title>\\AppBundle\\Repository\\ThesisRepository&#45;&gt;\\AppBundle\\Repository\\ThesisRepositoryInterface</title>
<path fill="none" stroke="#000000" stroke-dasharray="1,5" d="M1393.5383,-3015.9959C1308.4434,-3015.9959 1155.4005,-3015.9959 1053.4302,-3015.9959"/>
<polygon fill="none" stroke="#000000" points="1053.4178,-3012.496 1043.4178,-3015.9959 1053.4178,-3019.496 1053.4178,-3012.496"/>
</g>
<!-- \\AppBundle\\Repository\\ThesisRepository&#45;&gt;\\Doctrine\\ORM\\EntityRepository -->
<g id="edge43" class="edge">
<title>\\AppBundle\\Repository\\ThesisRepository&#45;&gt;\\Doctrine\\ORM\\EntityRepository</title>
<path fill="none" stroke="#000000" d="M1393.5136,-3010.9957C1376.7848,-3006.6405 1360.2109,-2999.0479 1348.7924,-2985.9959 1281.1267,-2908.6503 1300.7587,-2629.5147 1284.7924,-2527.9959 1163.7661,-1758.4735 988.5745,-819.5069 956.0289,-646.189"/>
<polygon fill="none" stroke="#000000" points="959.4607,-645.4997 954.174,-636.3181 952.5811,-646.7925 959.4607,-645.4997"/>
</g>
<!-- \\AppBundle\\Exceptions\\UnknownUserTypeException -->
<g id="node16" class="node">
<title>\\AppBundle\\Exceptions\\UnknownUserTypeException</title>
<polygon fill="none" stroke="#000000" points="1545.7924,-2495.9959 1366.7924,-2495.9959 1366.7924,-2459.9959 1545.7924,-2459.9959 1545.7924,-2495.9959"/>
<text text-anchor="middle" x="1456.2924" y="-2475.1959" font-family="Courier,monospace" font-size="11.00" fill="#000000">UnknownUserTypeException</text>
</g>
<!-- \\Exception -->
<g id="node52" class="node">
<title>\\Exception</title>
<ellipse fill="none" stroke="#000000" cx="950.722" cy="-563.9959" rx="60.3893" ry="18"/>
<text text-anchor="middle" x="950.722" y="-560.2959" font-family="Times,serif" font-size="14.00" fill="#c0c0c0">\Exception</text>
</g>
<!-- \\AppBundle\\Exceptions\\UnknownUserTypeException&#45;&gt;\\Exception -->
<g id="edge1" class="edge">
<title>\\AppBundle\\Exceptions\\UnknownUserTypeException&#45;&gt;\\Exception</title>
<path fill="none" stroke="#000000" d="M1366.6729,-2465.8374C1359.878,-2461.9965 1353.7506,-2457.1328 1348.7924,-2450.9959 1218.8358,-2290.1451 1427.594,-740.5598 1284.7924,-590.9959 1249.7157,-554.2582 1107.1064,-555.0717 1019.9493,-559.3046"/>
<polygon fill="none" stroke="#000000" points="1019.6752,-555.814 1009.8675,-559.8213 1020.0336,-562.8048 1019.6752,-555.814"/>
</g>
<!-- \\AppBundle\\Exceptions\\TopicReservedException -->
<g id="node17" class="node">
<title>\\AppBundle\\Exceptions\\TopicReservedException</title>
<polygon fill="none" stroke="#000000" points="1538.7924,-2441.9959 1373.7924,-2441.9959 1373.7924,-2405.9959 1538.7924,-2405.9959 1538.7924,-2441.9959"/>
<text text-anchor="middle" x="1456.2924" y="-2421.1959" font-family="Courier,monospace" font-size="11.00" fill="#000000">TopicReservedException</text>
</g>
<!-- \\AppBundle\\Exceptions\\TopicReservedException&#45;&gt;\\Exception -->
<g id="edge18" class="edge">
<title>\\AppBundle\\Exceptions\\TopicReservedException&#45;&gt;\\Exception</title>
<path fill="none" stroke="#000000" d="M1373.592,-2415.3015C1364.0465,-2411.0561 1355.3874,-2405.1501 1348.7924,-2396.9959 1222.524,-2240.8742 1423.5277,-736.1516 1284.7924,-590.9959 1249.6969,-554.2762 1107.0944,-555.0832 1019.9435,-559.3101"/>
<polygon fill="none" stroke="#000000" points="1019.6705,-555.8194 1009.8625,-559.8261 1020.0284,-562.8102 1019.6705,-555.8194"/>
</g>
<!-- \\AppBundle\\Exceptions\\ReviewerDuplicatedException -->
<g id="node18" class="node">
<title>\\AppBundle\\Exceptions\\ReviewerDuplicatedException</title>
<polygon fill="none" stroke="#000000" points="1555.7924,-2387.9959 1356.7924,-2387.9959 1356.7924,-2351.9959 1555.7924,-2351.9959 1555.7924,-2387.9959"/>
<text text-anchor="middle" x="1456.2924" y="-2367.1959" font-family="Courier,monospace" font-size="11.00" fill="#000000">ReviewerDuplicatedException</text>
</g>
<!-- \\AppBundle\\Exceptions\\ReviewerDuplicatedException&#45;&gt;\\Exception -->
<g id="edge26" class="edge">
<title>\\AppBundle\\Exceptions\\ReviewerDuplicatedException&#45;&gt;\\Exception</title>
<path fill="none" stroke="#000000" d="M1361.2896,-2351.8083C1356.6229,-2348.4677 1352.3912,-2344.5607 1348.7924,-2339.9959 1228.3975,-2187.2835 1419.2357,-731.4986 1284.7924,-590.9959 1249.6757,-554.2965 1107.081,-555.096 1019.9371,-559.3162"/>
<polygon fill="none" stroke="#000000" points="1019.6652,-555.8254 1009.8569,-559.8315 1020.0226,-562.8163 1019.6652,-555.8254"/>
</g>
<!-- \\AppBundle\\Entity\\User -->
<g id="node19" class="node">
<title>\\AppBundle\\Entity\\User</title>
<polygon fill="none" stroke="#000000" points="992.722,-2602.9959 908.722,-2602.9959 908.722,-2566.9959 992.722,-2566.9959 992.722,-2602.9959"/>
<text text-anchor="start" x="916.722" y="-2588.1959" font-family="Courier,monospace" font-size="11.00" fill="#000000">«abstract»</text>
<text text-anchor="start" x="936.722" y="-2576.1959" font-family="Courier,monospace" font-size="11.00" fill="#000000">User</text>
</g>
<!-- \\Symfony\\Component\\Security\\Core\\User\\UserInterface -->
<g id="node53" class="node">
<title>\\Symfony\\Component\\Security\\Core\\User\\UserInterface</title>
<ellipse fill="none" stroke="#000000" cx="272.3258" cy="-2584.9959" rx="272.1518" ry="18"/>
<text text-anchor="middle" x="272.3258" y="-2581.2959" font-family="Times,serif" font-size="14.00" fill="#c0c0c0">\Symfony\Component\Security\Core\User\UserInterface</text>
</g>
<!-- \\AppBundle\\Entity\\User&#45;&gt;\\Symfony\\Component\\Security\\Core\\User\\UserInterface -->
<g id="edge2" class="edge">
<title>\\AppBundle\\Entity\\User&#45;&gt;\\Symfony\\Component\\Security\\Core\\User\\UserInterface</title>
<path fill="none" stroke="#000000" stroke-dasharray="1,5" d="M908.5416,-2584.9959C837.9393,-2584.9959 690.2317,-2584.9959 554.8997,-2584.9959"/>
<polygon fill="none" stroke="#000000" points="554.7643,-2581.496 544.7642,-2584.9959 554.7642,-2588.496 554.7643,-2581.496"/>
</g>
<!-- \\AppBundle\\Entity\\Draft -->
<g id="node20" class="node">
<title>\\AppBundle\\Entity\\Draft</title>
<polygon fill="none" stroke="#000000" points="1483.2924,-2953.9959 1429.2924,-2953.9959 1429.2924,-2917.9959 1483.2924,-2917.9959 1483.2924,-2953.9959"/>
<text text-anchor="middle" x="1456.2924" y="-2933.1959" font-family="Courier,monospace" font-size="11.00" fill="#000000">Draft</text>
</g>
<!-- \\AppBundle\\Entity\\Reservation -->
<g id="node21" class="node">
<title>\\AppBundle\\Entity\\Reservation</title>
<polygon fill="none" stroke="#000000" points="1501.7924,-2899.9959 1410.7924,-2899.9959 1410.7924,-2863.9959 1501.7924,-2863.9959 1501.7924,-2899.9959"/>
<text text-anchor="middle" x="1456.2924" y="-2879.1959" font-family="Courier,monospace" font-size="11.00" fill="#000000">Reservation</text>
</g>
<!-- \\AppBundle\\Entity\\Topic -->
<g id="node22" class="node">
<title>\\AppBundle\\Entity\\Topic</title>
<polygon fill="none" stroke="#000000" points="1483.2924,-2845.9959 1429.2924,-2845.9959 1429.2924,-2809.9959 1483.2924,-2809.9959 1483.2924,-2845.9959"/>
<text text-anchor="middle" x="1456.2924" y="-2825.1959" font-family="Courier,monospace" font-size="11.00" fill="#000000">Topic</text>
</g>
<!-- \\AppBundle\\Entity\\Thesis -->
<g id="node23" class="node">
<title>\\AppBundle\\Entity\\Thesis</title>
<polygon fill="none" stroke="#000000" points="1484.7924,-2791.9959 1427.7924,-2791.9959 1427.7924,-2755.9959 1484.7924,-2755.9959 1484.7924,-2791.9959"/>
<text text-anchor="middle" x="1456.2924" y="-2771.1959" font-family="Courier,monospace" font-size="11.00" fill="#000000">Thesis</text>
</g>
<!-- \\AppBundle\\Entity\\Feedback -->
<g id="node24" class="node">
<title>\\AppBundle\\Entity\\Feedback</title>
<polygon fill="none" stroke="#000000" points="1491.7924,-2737.9959 1420.7924,-2737.9959 1420.7924,-2701.9959 1491.7924,-2701.9959 1491.7924,-2737.9959"/>
<text text-anchor="middle" x="1456.2924" y="-2717.1959" font-family="Courier,monospace" font-size="11.00" fill="#000000">Feedback</text>
</g>
<!-- \\AppBundle\\Entity\\Review -->
<g id="node25" class="node">
<title>\\AppBundle\\Entity\\Review</title>
<polygon fill="none" stroke="#000000" points="1484.7924,-2683.9959 1427.7924,-2683.9959 1427.7924,-2647.9959 1484.7924,-2647.9959 1484.7924,-2683.9959"/>
<text text-anchor="middle" x="1456.2924" y="-2663.1959" font-family="Courier,monospace" font-size="11.00" fill="#000000">Review</text>
</g>
<!-- \\AppBundle\\Entity\\Worker -->
<g id="node26" class="node">
<title>\\AppBundle\\Entity\\Worker</title>
<polygon fill="none" stroke="#000000" points="1484.7924,-2629.9959 1427.7924,-2629.9959 1427.7924,-2593.9959 1484.7924,-2593.9959 1484.7924,-2629.9959"/>
<text text-anchor="middle" x="1456.2924" y="-2609.1959" font-family="Courier,monospace" font-size="11.00" fill="#000000">Worker</text>
</g>
<!-- \\AppBundle\\Entity\\Worker&#45;&gt;\\AppBundle\\Entity\\User -->
<g id="edge27" class="edge">
<title>\\AppBundle\\Entity\\Worker&#45;&gt;\\AppBundle\\Entity\\User</title>
<path fill="none" stroke="#000000" d="M1427.6622,-2610.4669C1345.6881,-2606.089 1109.1849,-2593.4586 1003.1939,-2587.7981"/>
<polygon fill="none" stroke="#000000" points="1003.2226,-2584.2948 993.0502,-2587.2564 1002.8492,-2591.2848 1003.2226,-2584.2948"/>
</g>
<!-- \\AppBundle\\Entity\\Student -->
<g id="node27" class="node">
<title>\\AppBundle\\Entity\\Student</title>
<polygon fill="none" stroke="#000000" points="1488.2924,-2575.9959 1424.2924,-2575.9959 1424.2924,-2539.9959 1488.2924,-2539.9959 1488.2924,-2575.9959"/>
<text text-anchor="middle" x="1456.2924" y="-2555.1959" font-family="Courier,monospace" font-size="11.00" fill="#000000">Student</text>
</g>
<!-- \\AppBundle\\Entity\\Student&#45;&gt;\\AppBundle\\Entity\\User -->
<g id="edge35" class="edge">
<title>\\AppBundle\\Entity\\Student&#45;&gt;\\AppBundle\\Entity\\User</title>
<path fill="none" stroke="#000000" d="M1424.2832,-2559.7053C1339.3119,-2564.2432 1107.4404,-2576.6263 1002.9748,-2582.2053"/>
<polygon fill="none" stroke="#000000" points="1002.7718,-2578.7111 992.9727,-2582.7395 1003.1452,-2585.7011 1002.7718,-2578.7111"/>
</g>
<!-- \\AppBundle\\Services\\UserService -->
<g id="node28" class="node">
<title>\\AppBundle\\Services\\UserService</title>
<polygon fill="none" stroke="#000000" points="1501.7924,-2307.9959 1410.7924,-2307.9959 1410.7924,-2271.9959 1501.7924,-2271.9959 1501.7924,-2307.9959"/>
<text text-anchor="middle" x="1456.2924" y="-2287.1959" font-family="Courier,monospace" font-size="11.00" fill="#000000">UserService</text>
</g>
<!-- \\AppBundle\\Services\\TopicService -->
<g id="node29" class="node">
<title>\\AppBundle\\Services\\TopicService</title>
<polygon fill="none" stroke="#000000" points="1505.2924,-2253.9959 1407.2924,-2253.9959 1407.2924,-2217.9959 1505.2924,-2217.9959 1505.2924,-2253.9959"/>
<text text-anchor="middle" x="1456.2924" y="-2233.1959" font-family="Courier,monospace" font-size="11.00" fill="#000000">TopicService</text>
</g>
<!-- \\AppBundle\\Services\\ThesisService -->
<g id="node30" class="node">
<title>\\AppBundle\\Services\\ThesisService</title>
<polygon fill="none" stroke="#000000" points="1508.2924,-2199.9959 1404.2924,-2199.9959 1404.2924,-2163.9959 1508.2924,-2163.9959 1508.2924,-2199.9959"/>
<text text-anchor="middle" x="1456.2924" y="-2179.1959" font-family="Courier,monospace" font-size="11.00" fill="#000000">ThesisService</text>
</g>
<!-- \\AppBundle\\Services\\DraftService -->
<g id="node31" class="node">
<title>\\AppBundle\\Services\\DraftService</title>
<polygon fill="none" stroke="#000000" points="1505.2924,-2145.9959 1407.2924,-2145.9959 1407.2924,-2109.9959 1505.2924,-2109.9959 1505.2924,-2145.9959"/>
<text text-anchor="middle" x="1456.2924" y="-2125.1959" font-family="Courier,monospace" font-size="11.00" fill="#000000">DraftService</text>
</g>
<!-- \\AppBundle\\Services\\FeedbackService -->
<g id="node32" class="node">
<title>\\AppBundle\\Services\\FeedbackService</title>
<polygon fill="none" stroke="#000000" points="1515.2924,-2091.9959 1397.2924,-2091.9959 1397.2924,-2055.9959 1515.2924,-2055.9959 1515.2924,-2091.9959"/>
<text text-anchor="middle" x="1456.2924" y="-2071.1959" font-family="Courier,monospace" font-size="11.00" fill="#000000">FeedbackService</text>
</g>
<!-- \\AppBundle\\Services\\ReviewService -->
<g id="node33" class="node">
<title>\\AppBundle\\Services\\ReviewService</title>
<polygon fill="none" stroke="#000000" points="1508.2924,-2037.9959 1404.2924,-2037.9959 1404.2924,-2001.9959 1508.2924,-2001.9959 1508.2924,-2037.9959"/>
<text text-anchor="middle" x="1456.2924" y="-2017.1959" font-family="Courier,monospace" font-size="11.00" fill="#000000">ReviewService</text>
</g>
<!-- \\AppBundle\\DataFixtures\\ORM\\LoadReviewerData -->
<g id="node34" class="node">
<title>\\AppBundle\\DataFixtures\\ORM\\LoadReviewerData</title>
<polygon fill="none" stroke="#000000" points="1518.7924,-1821.9959 1393.7924,-1821.9959 1393.7924,-1785.9959 1518.7924,-1785.9959 1518.7924,-1821.9959"/>
<text text-anchor="middle" x="1456.2924" y="-1801.1959" font-family="Courier,monospace" font-size="11.00" fill="#000000">LoadReviewerData</text>
</g>
<!-- \\Doctrine\\Common\\DataFixtures\\AbstractFixture -->
<g id="node54" class="node">
<title>\\Doctrine\\Common\\DataFixtures\\AbstractFixture</title>
<ellipse fill="none" stroke="#000000" cx="950.722" cy="-455.9959" rx="239.6576" ry="18"/>
<text text-anchor="middle" x="950.722" y="-452.2959" font-family="Times,serif" font-size="14.00" fill="#c0c0c0">\Doctrine\Common\DataFixtures\AbstractFixture</text>
</g>
<!-- \\AppBundle\\DataFixtures\\ORM\\LoadReviewerData&#45;&gt;\\Doctrine\\Common\\DataFixtures\\AbstractFixture -->
<g id="edge3" class="edge">
<title>\\AppBundle\\DataFixtures\\ORM\\LoadReviewerData&#45;&gt;\\Doctrine\\Common\\DataFixtures\\AbstractFixture</title>
<path fill="none" stroke="#000000" d="M1393.7278,-1801.6771C1376.6932,-1797.8587 1359.8992,-1790.5337 1348.7924,-1776.9959 1257.4862,-1665.7044 1384.9812,-586.3632 1284.7924,-482.9959 1270.279,-468.022 1237.7046,-459.3165 1198.3205,-454.543"/>
<polygon fill="none" stroke="#000000" points="1198.4936,-451.0408 1188.1677,-453.4128 1197.719,-457.9978 1198.4936,-451.0408"/>
</g>
<!-- \\Doctrine\\Common\\DataFixtures\\OrderedFixtureInterface -->
<g id="node55" class="node">
<title>\\Doctrine\\Common\\DataFixtures\\OrderedFixtureInterface</title>
<ellipse fill="none" stroke="#000000" cx="950.722" cy="-401.9959" rx="281.3501" ry="18"/>
<text text-anchor="middle" x="950.722" y="-398.2959" font-family="Times,serif" font-size="14.00" fill="#c0c0c0">\Doctrine\Common\DataFixtures\OrderedFixtureInterface</text>
</g>
<!-- \\AppBundle\\DataFixtures\\ORM\\LoadReviewerData&#45;&gt;\\Doctrine\\Common\\DataFixtures\\OrderedFixtureInterface -->
<g id="edge4" class="edge">
<title>\\AppBundle\\DataFixtures\\ORM\\LoadReviewerData&#45;&gt;\\Doctrine\\Common\\DataFixtures\\OrderedFixtureInterface</title>
<path fill="none" stroke="#000000" stroke-dasharray="1,5" d="M1393.7111,-1801.6908C1376.676,-1797.8728 1359.8858,-1790.5447 1348.7924,-1776.9959 1253.7996,-1660.9772 1389.0458,-536.7696 1284.7924,-428.9959 1275.5393,-419.4303 1258.9263,-412.4211 1237.8792,-407.3602"/>
<polygon fill="none" stroke="#000000" points="1238.4255,-403.8968 1227.9074,-405.1698 1236.9236,-410.7338 1238.4255,-403.8968"/>
</g>
<!-- \\Symfony\\Component\\DependencyInjection\\ContainerAwareInterface -->
<g id="node56" class="node">
<title>\\Symfony\\Component\\DependencyInjection\\ContainerAwareInterface</title>
<ellipse fill="none" stroke="#000000" cx="950.722" cy="-509.9959" rx="334.1407" ry="18"/>
<text text-anchor="middle" x="950.722" y="-506.2959" font-family="Times,serif" font-size="14.00" fill="#c0c0c0">\Symfony\Component\DependencyInjection\ContainerAwareInterface</text>
</g>
<!-- \\AppBundle\\DataFixtures\\ORM\\LoadReviewerData&#45;&gt;\\Symfony\\Component\\DependencyInjection\\ContainerAwareInterface -->
<g id="edge5" class="edge">
<title>\\AppBundle\\DataFixtures\\ORM\\LoadReviewerData&#45;&gt;\\Symfony\\Component\\DependencyInjection\\ContainerAwareInterface</title>
<path fill="none" stroke="#000000" stroke-dasharray="1,5" d="M1393.7459,-1801.6622C1376.712,-1797.8433 1359.9137,-1790.5218 1348.7924,-1776.9959 1261.1725,-1670.4312 1380.917,-635.9571 1284.7924,-536.9959 1278.7542,-530.7795 1269.5983,-525.6442 1258.132,-521.4226"/>
<polygon fill="none" stroke="#000000" points="1259.0494,-518.0398 1248.4563,-518.2296 1256.8557,-524.6872 1259.0494,-518.0398"/>
</g>
<!-- \\AppBundle\\DataFixtures\\ORM\\LoadTopicData -->
<g id="node35" class="node">
<title>\\AppBundle\\DataFixtures\\ORM\\LoadTopicData</title>
<polygon fill="none" stroke="#000000" points="1508.2924,-1767.9959 1404.2924,-1767.9959 1404.2924,-1731.9959 1508.2924,-1731.9959 1508.2924,-1767.9959"/>
<text text-anchor="middle" x="1456.2924" y="-1747.1959" font-family="Courier,monospace" font-size="11.00" fill="#000000">LoadTopicData</text>
</g>
<!-- \\AppBundle\\DataFixtures\\ORM\\LoadTopicData&#45;&gt;\\Doctrine\\Common\\DataFixtures\\AbstractFixture -->
<g id="edge14" class="edge">
<title>\\AppBundle\\DataFixtures\\ORM\\LoadTopicData&#45;&gt;\\Doctrine\\Common\\DataFixtures\\AbstractFixture</title>
<path fill="none" stroke="#000000" d="M1406.6602,-1731.9569C1385.0716,-1721.4259 1361.7817,-1705.8279 1348.7924,-1683.9959 1280.464,-1569.1515 1377.982,-578.7752 1284.7924,-482.9959 1270.2972,-468.0978 1237.8728,-459.4124 1198.6558,-454.6323"/>
<polygon fill="none" stroke="#000000" points="1198.8733,-451.1349 1188.5457,-453.4998 1198.0939,-458.0914 1198.8733,-451.1349"/>
</g>
<!-- \\AppBundle\\DataFixtures\\ORM\\LoadTopicData&#45;&gt;\\Doctrine\\Common\\DataFixtures\\OrderedFixtureInterface -->
<g id="edge15" class="edge">
<title>\\AppBundle\\DataFixtures\\ORM\\LoadTopicData&#45;&gt;\\Doctrine\\Common\\DataFixtures\\OrderedFixtureInterface</title>
<path fill="none" stroke="#000000" stroke-dasharray="1,5" d="M1406.6378,-1731.9702C1385.0443,-1721.4422 1361.7567,-1705.8428 1348.7924,-1683.9959 1277.5375,-1563.9206 1382.0459,-529.181 1284.7924,-428.9959 1275.5225,-419.4465 1258.8988,-412.4478 1237.8453,-407.3931"/>
<polygon fill="none" stroke="#000000" points="1238.3885,-403.9291 1227.8708,-405.2052 1236.8887,-410.7665 1238.3885,-403.9291"/>
</g>
<!-- \\AppBundle\\DataFixtures\\ORM\\LoadTopicData&#45;&gt;\\Symfony\\Component\\DependencyInjection\\ContainerAwareInterface -->
<g id="edge16" class="edge">
<title>\\AppBundle\\DataFixtures\\ORM\\LoadTopicData&#45;&gt;\\Symfony\\Component\\DependencyInjection\\ContainerAwareInterface</title>
<path fill="none" stroke="#000000" stroke-dasharray="1,5" d="M1406.6847,-1731.9423C1385.1014,-1721.4082 1361.809,-1705.8117 1348.7924,-1683.9959 1283.3902,-1574.382 1373.9185,-628.3698 1284.7924,-536.9959 1278.7413,-530.7921 1269.5754,-525.6665 1258.1016,-521.4521"/>
<polygon fill="none" stroke="#000000" points="1259.0135,-518.0676 1248.4205,-518.2645 1256.8242,-524.7164 1259.0135,-518.0676"/>
</g>
<!-- \\AppBundle\\DataFixtures\\ORM\\LoadThesisData -->
<g id="node36" class="node">
<title>\\AppBundle\\DataFixtures\\ORM\\LoadThesisData</title>
<polygon fill="none" stroke="#000000" points="1511.7924,-1929.9959 1400.7924,-1929.9959 1400.7924,-1893.9959 1511.7924,-1893.9959 1511.7924,-1929.9959"/>
<text text-anchor="middle" x="1456.2924" y="-1909.1959" font-family="Courier,monospace" font-size="11.00" fill="#000000">LoadThesisData</text>
</g>
<!-- \\AppBundle\\DataFixtures\\ORM\\LoadThesisData&#45;&gt;\\Doctrine\\Common\\DataFixtures\\AbstractFixture -->
<g id="edge30" class="edge">
<title>\\AppBundle\\DataFixtures\\ORM\\LoadThesisData&#45;&gt;\\Doctrine\\Common\\DataFixtures\\AbstractFixture</title>
<path fill="none" stroke="#000000" d="M1400.7159,-1911.0847C1381.3794,-1907.7824 1361.3956,-1900.4173 1348.7924,-1884.9959 1250.1128,-1764.2498 1393.1106,-595.1763 1284.7924,-482.9959 1270.3075,-467.9945 1237.7456,-459.2768 1198.3648,-454.5002"/>
<polygon fill="none" stroke="#000000" points="1198.5387,-450.998 1188.2126,-453.3693 1197.7636,-457.955 1198.5387,-450.998"/>
</g>
<!-- \\AppBundle\\DataFixtures\\ORM\\LoadThesisData&#45;&gt;\\Doctrine\\Common\\DataFixtures\\OrderedFixtureInterface -->
<g id="edge31" class="edge">
<title>\\AppBundle\\DataFixtures\\ORM\\LoadThesisData&#45;&gt;\\Doctrine\\Common\\DataFixtures\\OrderedFixtureInterface</title>
<path fill="none" stroke="#000000" stroke-dasharray="1,5" d="M1400.702,-1911.096C1381.3639,-1907.7951 1361.3825,-1900.428 1348.7924,-1884.9959 1246.4257,-1759.522 1397.1756,-545.5833 1284.7924,-428.9959 1275.5561,-419.414 1258.9539,-412.3944 1237.9132,-407.3273"/>
<polygon fill="none" stroke="#000000" points="1238.4625,-403.8645 1227.9441,-405.1344 1236.9586,-410.7011 1238.4625,-403.8645"/>
</g>
<!-- \\AppBundle\\DataFixtures\\ORM\\LoadThesisData&#45;&gt;\\Symfony\\Component\\DependencyInjection\\ContainerAwareInterface -->
<g id="edge32" class="edge">
<title>\\AppBundle\\DataFixtures\\ORM\\LoadThesisData&#45;&gt;\\Symfony\\Component\\DependencyInjection\\ContainerAwareInterface</title>
<path fill="none" stroke="#000000" stroke-dasharray="1,5" d="M1400.7309,-1911.0724C1381.3962,-1907.7687 1361.4096,-1900.4058 1348.7924,-1884.9959 1253.7996,-1768.9772 1389.0458,-644.7696 1284.7924,-536.9959 1278.767,-530.7671 1269.621,-525.6222 1258.162,-521.3935"/>
<polygon fill="none" stroke="#000000" points="1259.085,-518.0123 1248.4918,-518.1952 1256.887,-524.6583 1259.085,-518.0123"/>
</g>
<!-- \\AppBundle\\DataFixtures\\ORM\\LoadUserData -->
<g id="node37" class="node">
<title>\\AppBundle\\DataFixtures\\ORM\\LoadUserData</title>
<polygon fill="none" stroke="#000000" points="1505.2924,-1875.9959 1407.2924,-1875.9959 1407.2924,-1839.9959 1505.2924,-1839.9959 1505.2924,-1875.9959"/>
<text text-anchor="middle" x="1456.2924" y="-1855.1959" font-family="Courier,monospace" font-size="11.00" fill="#000000">LoadUserData</text>
</g>
<!-- \\AppBundle\\DataFixtures\\ORM\\LoadUserData&#45;&gt;\\Doctrine\\Common\\DataFixtures\\AbstractFixture -->
<g id="edge38" class="edge">
<title>\\AppBundle\\DataFixtures\\ORM\\LoadUserData&#45;&gt;\\Doctrine\\Common\\DataFixtures\\AbstractFixture</title>
<path fill="none" stroke="#000000" d="M1407.1406,-1858.0288C1385.9286,-1855.3055 1362.8115,-1848.118 1348.7924,-1830.9959 1253.7996,-1714.9772 1389.0458,-590.7696 1284.7924,-482.9959 1270.2938,-468.0077 1237.7259,-459.2959 1198.3435,-454.5207"/>
<polygon fill="none" stroke="#000000" points="1198.517,-451.0185 1188.191,-453.3901 1197.7422,-457.9755 1198.517,-451.0185"/>
</g>
<!-- \\AppBundle\\DataFixtures\\ORM\\LoadUserData&#45;&gt;\\Doctrine\\Common\\DataFixtures\\OrderedFixtureInterface -->
<g id="edge39" class="edge">
<title>\\AppBundle\\DataFixtures\\ORM\\LoadUserData&#45;&gt;\\Doctrine\\Common\\DataFixtures\\OrderedFixtureInterface</title>
<path fill="none" stroke="#000000" stroke-dasharray="1,5" d="M1407.1264,-1858.0405C1385.9114,-1855.3196 1362.7959,-1848.1308 1348.7924,-1830.9959 1250.1128,-1710.2498 1393.1106,-541.1763 1284.7924,-428.9959 1275.548,-419.4218 1258.9406,-412.4073 1237.8969,-407.3431"/>
<polygon fill="none" stroke="#000000" points="1238.4447,-403.88 1227.9264,-405.1514 1236.9418,-410.7168 1238.4447,-403.88"/>
</g>
<!-- \\AppBundle\\DataFixtures\\ORM\\LoadUserData&#45;&gt;\\Symfony\\Component\\DependencyInjection\\ContainerAwareInterface -->
<g id="edge40" class="edge">
<title>\\AppBundle\\DataFixtures\\ORM\\LoadUserData&#45;&gt;\\Symfony\\Component\\DependencyInjection\\ContainerAwareInterface</title>
<path fill="none" stroke="#000000" stroke-dasharray="1,5" d="M1407.156,-1858.0162C1385.9472,-1855.2903 1362.8285,-1848.1042 1348.7924,-1830.9959 1257.4862,-1719.7044 1384.9812,-640.3632 1284.7924,-536.9959 1278.7609,-530.773 1269.6101,-525.6328 1258.1476,-521.4074"/>
<polygon fill="none" stroke="#000000" points="1259.068,-518.0255 1248.4748,-518.2117 1256.872,-524.6721 1259.068,-518.0255"/>
</g>
<!-- \\AppBundle\\Controller\\Thesis\\ThesisController -->
<g id="node38" class="node">
<title>\\AppBundle\\Controller\\Thesis\\ThesisController</title>
<polygon fill="none" stroke="#000000" points="1518.7924,-1651.9959 1393.7924,-1651.9959 1393.7924,-1615.9959 1518.7924,-1615.9959 1518.7924,-1651.9959"/>
<text text-anchor="middle" x="1456.2924" y="-1631.1959" font-family="Courier,monospace" font-size="11.00" fill="#000000">ThesisController</text>
</g>
<!-- \\Symfony\\Bundle\\FrameworkBundle\\Controller\\Controller -->
<g id="node57" class="node">
<title>\\Symfony\\Bundle\\FrameworkBundle\\Controller\\Controller</title>
<ellipse fill="none" stroke="#000000" cx="950.722" cy="-347.9959" rx="280.2503" ry="18"/>
<text text-anchor="middle" x="950.722" y="-344.2959" font-family="Times,serif" font-size="14.00" fill="#c0c0c0">\Symfony\Bundle\FrameworkBundle\Controller\Controller</text>
</g>
<!-- \\AppBundle\\Controller\\Thesis\\ThesisController&#45;&gt;\\Symfony\\Bundle\\FrameworkBundle\\Controller\\Controller -->
<g id="edge6" class="edge">
<title>\\AppBundle\\Controller\\Thesis\\ThesisController&#45;&gt;\\Symfony\\Bundle\\FrameworkBundle\\Controller\\Controller</title>
<path fill="none" stroke="#000000" d="M1393.7488,-1631.6599C1376.7149,-1627.8409 1359.916,-1620.5199 1348.7924,-1606.9959 1261.7186,-1501.1314 1380.315,-473.3044 1284.7924,-374.9959 1275.3879,-365.3171 1258.4235,-358.2593 1236.9475,-353.1905"/>
<polygon fill="none" stroke="#000000" points="1237.6405,-349.7595 1227.1269,-351.0689 1236.1622,-356.6017 1237.6405,-349.7595"/>
</g>
<!-- \\AppBundle\\Controller\\Thesis\\ReviewController -->
<g id="node39" class="node">
<title>\\AppBundle\\Controller\\Thesis\\ReviewController</title>
<polygon fill="none" stroke="#000000" points="1518.7924,-1597.9959 1393.7924,-1597.9959 1393.7924,-1561.9959 1518.7924,-1561.9959 1518.7924,-1597.9959"/>
<text text-anchor="middle" x="1456.2924" y="-1577.1959" font-family="Courier,monospace" font-size="11.00" fill="#000000">ReviewController</text>
</g>
<!-- \\AppBundle\\Controller\\Thesis\\ReviewController&#45;&gt;\\Symfony\\Bundle\\FrameworkBundle\\Controller\\Controller -->
<g id="edge29" class="edge">
<title>\\AppBundle\\Controller\\Thesis\\ReviewController&#45;&gt;\\Symfony\\Bundle\\FrameworkBundle\\Controller\\Controller</title>
<path fill="none" stroke="#000000" d="M1393.7688,-1577.6434C1376.7356,-1573.8239 1359.932,-1566.5067 1348.7924,-1552.9959 1182.0165,-1350.7196 1467.71,-562.8017 1284.7924,-374.9959 1275.3764,-365.3282 1258.4046,-358.2776 1236.9244,-353.213"/>
<polygon fill="none" stroke="#000000" points="1237.6154,-349.7816 1227.102,-351.093 1236.1385,-356.624 1237.6154,-349.7816"/>
</g>
<!-- \\AppBundle\\Controller\\Thesis\\DraftController -->
<g id="node40" class="node">
<title>\\AppBundle\\Controller\\Thesis\\DraftController</title>
<polygon fill="none" stroke="#000000" points="1515.2924,-1543.9959 1397.2924,-1543.9959 1397.2924,-1507.9959 1515.2924,-1507.9959 1515.2924,-1543.9959"/>
<text text-anchor="middle" x="1456.2924" y="-1523.1959" font-family="Courier,monospace" font-size="11.00" fill="#000000">DraftController</text>
</g>
<!-- \\AppBundle\\Controller\\Thesis\\DraftController&#45;&gt;\\Symfony\\Bundle\\FrameworkBundle\\Controller\\Controller -->
<g id="edge42" class="edge">
<title>\\AppBundle\\Controller\\Thesis\\DraftController&#45;&gt;\\Symfony\\Bundle\\FrameworkBundle\\Controller\\Controller</title>
<path fill="none" stroke="#000000" d="M1397.0381,-1522.5956C1378.8673,-1518.4886 1360.579,-1510.6359 1348.7924,-1495.9959 1192.3174,-1301.64 1459.1318,-553.5019 1284.7924,-374.9959 1275.3631,-365.3412 1258.3829,-358.2988 1236.8977,-353.2391"/>
<polygon fill="none" stroke="#000000" points="1237.5864,-349.8072 1227.0733,-351.121 1236.1111,-356.65 1237.5864,-349.8072"/>
</g>
<!-- \\AppBundle\\Controller\\Common\\DefaultController -->
<g id="node41" class="node">
<title>\\AppBundle\\Controller\\Common\\DefaultController</title>
<polygon fill="none" stroke="#000000" points="1521.7924,-1463.9959 1390.7924,-1463.9959 1390.7924,-1427.9959 1521.7924,-1427.9959 1521.7924,-1463.9959"/>
<text text-anchor="middle" x="1456.2924" y="-1443.1959" font-family="Courier,monospace" font-size="11.00" fill="#000000">DefaultController</text>
</g>
<!-- \\AppBundle\\Controller\\Common\\DefaultController&#45;&gt;\\Symfony\\Bundle\\FrameworkBundle\\Controller\\Controller -->
<g id="edge13" class="edge">
<title>\\AppBundle\\Controller\\Common\\DefaultController&#45;&gt;\\Symfony\\Bundle\\FrameworkBundle\\Controller\\Controller</title>
<path fill="none" stroke="#000000" d="M1390.6189,-1440.9416C1374.6598,-1436.5009 1359.2098,-1428.8774 1348.7924,-1415.9959 1203.0522,-1235.7816 1447.0941,-540.4514 1284.7924,-374.9959 1275.342,-365.3618 1258.3483,-358.3326 1236.8553,-353.2806"/>
<polygon fill="none" stroke="#000000" points="1237.5403,-349.848 1227.0278,-351.1656 1236.0675,-356.6913 1237.5403,-349.848"/>
</g>
<!-- \\AppBundle\\Controller\\Security\\AuthController -->
<g id="node42" class="node">
<title>\\AppBundle\\Controller\\Security\\AuthController</title>
<polygon fill="none" stroke="#000000" points="1511.7924,-1383.9959 1400.7924,-1383.9959 1400.7924,-1347.9959 1511.7924,-1347.9959 1511.7924,-1383.9959"/>
<text text-anchor="middle" x="1456.2924" y="-1363.1959" font-family="Courier,monospace" font-size="11.00" fill="#000000">AuthController</text>
</g>
<!-- \\AppBundle\\Controller\\Security\\AuthController&#45;&gt;\\Symfony\\Bundle\\FrameworkBundle\\Controller\\Controller -->
<g id="edge20" class="edge">
<title>\\AppBundle\\Controller\\Security\\AuthController&#45;&gt;\\Symfony\\Bundle\\FrameworkBundle\\Controller\\Controller</title>
<path fill="none" stroke="#000000" d="M1400.766,-1363.3082C1381.4355,-1359.4394 1361.4426,-1351.5572 1348.7924,-1335.9959 1213.7846,-1169.9201 1435.0592,-527.4037 1284.7924,-374.9959 1275.273,-365.3408 1258.1483,-358.3063 1236.5028,-353.2582"/>
<polygon fill="none" stroke="#000000" points="1237.1167,-349.8105 1226.6064,-351.1455 1235.6553,-356.6562 1237.1167,-349.8105"/>
</g>
<!-- \\AppBundle\\Controller\\Topics\\TopicsController -->
<g id="node43" class="node">
<title>\\AppBundle\\Controller\\Topics\\TopicsController</title>
<polygon fill="none" stroke="#000000" points="1518.7924,-1303.9959 1393.7924,-1303.9959 1393.7924,-1267.9959 1518.7924,-1267.9959 1518.7924,-1303.9959"/>
<text text-anchor="middle" x="1456.2924" y="-1283.1959" font-family="Courier,monospace" font-size="11.00" fill="#000000">TopicsController</text>
</g>
<!-- \\AppBundle\\Controller\\Topics\\TopicsController&#45;&gt;\\Symfony\\Bundle\\FrameworkBundle\\Controller\\Controller -->
<g id="edge41" class="edge">
<title>\\AppBundle\\Controller\\Topics\\TopicsController&#45;&gt;\\Symfony\\Bundle\\FrameworkBundle\\Controller\\Controller</title>
<path fill="none" stroke="#000000" d="M1407.1568,-1267.9617C1385.5388,-1257.3999 1362.082,-1241.7748 1348.7924,-1219.9959 1250.7016,-1059.2446 1417.6149,-508.4909 1284.7924,-374.9959 1275.2292,-365.3842 1258.0766,-358.3773 1236.4149,-353.3453"/>
<polygon fill="none" stroke="#000000" points="1237.0213,-349.8961 1226.5119,-351.239 1235.565,-356.7429 1237.0213,-349.8961"/>
</g>
<!-- \\AppBundle\\Serializer\\Normalizer\\ThesisNormalizer -->
<g id="node44" class="node">
<title>\\AppBundle\\Serializer\\Normalizer\\ThesisNormalizer</title>
<polygon fill="none" stroke="#000000" points="1518.7924,-1133.9959 1393.7924,-1133.9959 1393.7924,-1097.9959 1518.7924,-1097.9959 1518.7924,-1133.9959"/>
<text text-anchor="middle" x="1456.2924" y="-1113.1959" font-family="Courier,monospace" font-size="11.00" fill="#000000">ThesisNormalizer</text>
</g>
<!-- \\Symfony\\Component\\Serializer\\Normalizer\\NormalizerInterface -->
<g id="node58" class="node">
<title>\\Symfony\\Component\\Serializer\\Normalizer\\NormalizerInterface</title>
<ellipse fill="none" stroke="#000000" cx="950.722" cy="-293.9959" rx="312.7446" ry="18"/>
<text text-anchor="middle" x="950.722" y="-290.2959" font-family="Times,serif" font-size="14.00" fill="#c0c0c0">\Symfony\Component\Serializer\Normalizer\NormalizerInterface</text>
</g>
<!-- \\AppBundle\\Serializer\\Normalizer\\ThesisNormalizer&#45;&gt;\\Symfony\\Component\\Serializer\\Normalizer\\NormalizerInterface -->
<g id="edge7" class="edge">
<title>\\AppBundle\\Serializer\\Normalizer\\ThesisNormalizer&#45;&gt;\\Symfony\\Component\\Serializer\\Normalizer\\NormalizerInterface</title>
<path fill="none" stroke="#000000" stroke-dasharray="1,5" d="M1393.7297,-1113.3779C1376.8003,-1109.5347 1360.0636,-1102.2712 1348.7924,-1088.9959 1237.9506,-958.4452 1406.0412,-441.9425 1284.7924,-320.9959 1277.569,-313.7905 1266.0558,-308.0525 1251.5635,-303.5151"/>
<polygon fill="none" stroke="#000000" points="1252.2001,-300.0579 1241.625,-300.7034 1250.2945,-306.7936 1252.2001,-300.0579"/>
</g>
<!-- \\Symfony\\Component\\Serializer\\SerializerAwareInterface -->
<g id="node59" class="node">
<title>\\Symfony\\Component\\Serializer\\SerializerAwareInterface</title>
<ellipse fill="none" stroke="#000000" cx="950.722" cy="-239.9959" rx="278.3507" ry="18"/>
<text text-anchor="middle" x="950.722" y="-236.2959" font-family="Times,serif" font-size="14.00" fill="#c0c0c0">\Symfony\Component\Serializer\SerializerAwareInterface</text>
</g>
<!-- \\AppBundle\\Serializer\\Normalizer\\ThesisNormalizer&#45;&gt;\\Symfony\\Component\\Serializer\\SerializerAwareInterface -->
<g id="edge8" class="edge">
<title>\\AppBundle\\Serializer\\Normalizer\\ThesisNormalizer&#45;&gt;\\Symfony\\Component\\Serializer\\SerializerAwareInterface</title>
<path fill="none" stroke="#000000" stroke-dasharray="1,5" d="M1393.6844,-1113.4163C1376.7536,-1109.5743 1360.0274,-1102.3018 1348.7924,-1088.9959 1230.5893,-949.0051 1414.1573,-396.7422 1284.7924,-266.9959 1275.0413,-257.2161 1257.4203,-250.1348 1235.1832,-245.0875"/>
<polygon fill="none" stroke="#000000" points="1235.8833,-241.6583 1225.3799,-243.047 1234.4568,-248.5114 1235.8833,-241.6583"/>
</g>
<!-- \\AppBundle\\Serializer\\Normalizer\\UserNormalizer -->
<g id="node45" class="node">
<title>\\AppBundle\\Serializer\\Normalizer\\UserNormalizer</title>
<polygon fill="none" stroke="#000000" points="1511.7924,-1079.9959 1400.7924,-1079.9959 1400.7924,-1043.9959 1511.7924,-1043.9959 1511.7924,-1079.9959"/>
<text text-anchor="middle" x="1456.2924" y="-1059.1959" font-family="Courier,monospace" font-size="11.00" fill="#000000">UserNormalizer</text>
</g>
<!-- \\AppBundle\\Serializer\\Normalizer\\UserNormalizer&#45;&gt;\\Symfony\\Component\\Serializer\\Normalizer\\NormalizerInterface -->
<g id="edge9" class="edge">
<title>\\AppBundle\\Serializer\\Normalizer\\UserNormalizer&#45;&gt;\\Symfony\\Component\\Serializer\\Normalizer\\NormalizerInterface</title>
<path fill="none" stroke="#000000" stroke-dasharray="1,5" d="M1407.6177,-1043.9848C1385.9646,-1033.3956 1362.3455,-1017.7409 1348.7924,-995.9959 1269.0949,-868.1265 1392.0713,-426.7953 1284.7924,-320.9959 1277.4856,-313.7898 1265.85,-308.057 1251.2171,-303.5282"/>
<polygon fill="none" stroke="#000000" points="1251.757,-300.045 1241.1838,-300.7226 1249.8718,-306.7864 1251.757,-300.045"/>
</g>
<!-- \\AppBundle\\Serializer\\Normalizer\\UserNormalizer&#45;&gt;\\Symfony\\Component\\Serializer\\SerializerAwareInterface -->
<g id="edge10" class="edge">
<title>\\AppBundle\\Serializer\\Normalizer\\UserNormalizer&#45;&gt;\\Symfony\\Component\\Serializer\\SerializerAwareInterface</title>
<path fill="none" stroke="#000000" stroke-dasharray="1,5" d="M1407.2728,-1043.8905C1385.6806,-1033.3128 1362.2121,-1017.6949 1348.7924,-995.9959 1263.255,-857.686 1400.1815,-381.5891 1284.7924,-266.9959 1274.9481,-257.2194 1257.1791,-250.1484 1234.7794,-245.1141"/>
<polygon fill="none" stroke="#000000" points="1235.4064,-241.6698 1224.9057,-243.0792 1233.9934,-248.5257 1235.4064,-241.6698"/>
</g>
<!-- \\AppBundle\\Serializer\\Normalizer\\TopicNormalizer -->
<g id="node46" class="node">
<title>\\AppBundle\\Serializer\\Normalizer\\TopicNormalizer</title>
<polygon fill="none" stroke="#000000" points="1515.2924,-1187.9959 1397.2924,-1187.9959 1397.2924,-1151.9959 1515.2924,-1151.9959 1515.2924,-1187.9959"/>
<text text-anchor="middle" x="1456.2924" y="-1167.1959" font-family="Courier,monospace" font-size="11.00" fill="#000000">TopicNormalizer</text>
</g>
<!-- \\AppBundle\\Serializer\\Normalizer\\TopicNormalizer&#45;&gt;\\Symfony\\Component\\Serializer\\Normalizer\\NormalizerInterface -->
<g id="edge23" class="edge">
<title>\\AppBundle\\Serializer\\Normalizer\\TopicNormalizer&#45;&gt;\\Symfony\\Component\\Serializer\\Normalizer\\NormalizerInterface</title>
<path fill="none" stroke="#000000" stroke-dasharray="1,5" d="M1397.053,-1168.136C1378.9956,-1164.5121 1360.7723,-1157.184 1348.7924,-1142.9959 1230.5893,-1003.0051 1414.1573,-450.7422 1284.7924,-320.9959 1277.5886,-313.7709 1266.0896,-308.0186 1251.6073,-303.4713"/>
<polygon fill="none" stroke="#000000" points="1252.2504,-300.0157 1241.6748,-300.6537 1250.34,-306.7499 1252.2504,-300.0157"/>
</g>
<!-- \\AppBundle\\Serializer\\Normalizer\\TopicNormalizer&#45;&gt;\\Symfony\\Component\\Serializer\\SerializerAwareInterface -->
<g id="edge24" class="edge">
<title>\\AppBundle\\Serializer\\Normalizer\\TopicNormalizer&#45;&gt;\\Symfony\\Component\\Serializer\\SerializerAwareInterface</title>
<path fill="none" stroke="#000000" stroke-dasharray="1,5" d="M1397.0135,-1168.1692C1378.9533,-1164.5477 1360.7384,-1157.2125 1348.7924,-1142.9959 1223.2257,-993.5623 1422.2759,-405.5443 1284.7924,-266.9959 1275.0647,-257.1928 1257.4584,-250.0969 1235.2297,-245.0412"/>
<polygon fill="none" stroke="#000000" points="1235.9336,-241.6128 1225.4296,-242.9975 1234.5044,-248.4654 1235.9336,-241.6128"/>
</g>
<!-- \\AppBundle\\Security\\Voters\\ThesisVoter -->
<g id="node47" class="node">
<title>\\AppBundle\\Security\\Voters\\ThesisVoter</title>
<polygon fill="none" stroke="#000000" points="1501.7924,-963.9959 1410.7924,-963.9959 1410.7924,-927.9959 1501.7924,-927.9959 1501.7924,-963.9959"/>
<text text-anchor="middle" x="1456.2924" y="-943.1959" font-family="Courier,monospace" font-size="11.00" fill="#000000">ThesisVoter</text>
</g>
<!-- \\Symfony\\Component\\Security\\Core\\Authorization\\Voter\\Voter -->
<g id="node61" class="node">
<title>\\Symfony\\Component\\Security\\Core\\Authorization\\Voter\\Voter</title>
<ellipse fill="none" stroke="#000000" cx="950.722" cy="-185.9959" rx="300.0469" ry="18"/>
<text text-anchor="middle" x="950.722" y="-182.2959" font-family="Times,serif" font-size="14.00" fill="#c0c0c0">\Symfony\Component\Security\Core\Authorization\Voter\Voter</text>
</g>
<!-- \\AppBundle\\Security\\Voters\\ThesisVoter&#45;&gt;\\Symfony\\Component\\Security\\Core\\Authorization\\Voter\\Voter -->
<g id="edge17" class="edge">
<title>\\AppBundle\\Security\\Voters\\ThesisVoter&#45;&gt;\\Symfony\\Component\\Security\\Core\\Authorization\\Voter\\Voter</title>
<path fill="none" stroke="#000000" d="M1410.6592,-944.7931C1388.6381,-941.6945 1363.8014,-934.0074 1348.7924,-915.9959 1248.3701,-795.4844 1396.2761,-323.3546 1284.7924,-212.9959 1276.7237,-205.0086 1263.3523,-198.8291 1246.4824,-194.0917"/>
<polygon fill="none" stroke="#000000" points="1247.3171,-190.6926 1236.7617,-191.6059 1245.5827,-197.4744 1247.3171,-190.6926"/>
</g>
<!-- \\AppBundle\\Security\\User\\MultiUserProvider -->
<g id="node48" class="node">
<title>\\AppBundle\\Security\\User\\MultiUserProvider</title>
<polygon fill="none" stroke="#000000" points="1521.7924,-883.9959 1390.7924,-883.9959 1390.7924,-847.9959 1521.7924,-847.9959 1521.7924,-883.9959"/>
<text text-anchor="middle" x="1456.2924" y="-863.1959" font-family="Courier,monospace" font-size="11.00" fill="#000000">MultiUserProvider</text>
</g>
<!-- \\Symfony\\Component\\Security\\Core\\User\\UserProviderInterface -->
<g id="node63" class="node">
<title>\\Symfony\\Component\\Security\\Core\\User\\UserProviderInterface</title>
<ellipse fill="none" stroke="#000000" cx="950.722" cy="-131.9959" rx="311.9446" ry="18"/>
<text text-anchor="middle" x="950.722" y="-128.2959" font-family="Times,serif" font-size="14.00" fill="#c0c0c0">\Symfony\Component\Security\Core\User\UserProviderInterface</text>
</g>
<!-- \\AppBundle\\Security\\User\\MultiUserProvider&#45;&gt;\\Symfony\\Component\\Security\\Core\\User\\UserProviderInterface -->
<g id="edge25" class="edge">
<title>\\AppBundle\\Security\\User\\MultiUserProvider&#45;&gt;\\Symfony\\Component\\Security\\Core\\User\\UserProviderInterface</title>
<path fill="none" stroke="#000000" stroke-dasharray="1,5" d="M1390.6674,-865.7394C1374.9044,-862.4495 1359.5397,-855.9799 1348.7924,-843.9959 1246.7188,-730.1765 1393.5728,-266.4235 1284.7924,-158.9959 1277.3781,-151.6738 1265.4994,-145.8721 1250.5504,-141.3086"/>
<polygon fill="none" stroke="#000000" points="1251.4297,-137.9205 1240.8583,-138.6247 1249.5615,-144.6666 1251.4297,-137.9205"/>
</g>
<!-- \\AppBundle\\Security\\FormAuthenticator -->
<g id="node49" class="node">
<title>\\AppBundle\\Security\\FormAuthenticator</title>
<polygon fill="none" stroke="#000000" points="1521.7924,-829.9959 1390.7924,-829.9959 1390.7924,-793.9959 1521.7924,-793.9959 1521.7924,-829.9959"/>
<text text-anchor="middle" x="1456.2924" y="-809.1959" font-family="Courier,monospace" font-size="11.00" fill="#000000">FormAuthenticator</text>
</g>
<!-- \\Symfony\\Component\\Security\\Guard\\AbstractGuardAuthenticator -->
<g id="node62" class="node">
<title>\\Symfony\\Component\\Security\\Guard\\AbstractGuardAuthenticator</title>
<ellipse fill="none" stroke="#000000" cx="950.722" cy="-77.9959" rx="321.9431" ry="18"/>
<text text-anchor="middle" x="950.722" y="-74.2959" font-family="Times,serif" font-size="14.00" fill="#c0c0c0">\Symfony\Component\Security\Guard\AbstractGuardAuthenticator</text>
</g>
<!-- \\AppBundle\\Security\\FormAuthenticator&#45;&gt;\\Symfony\\Component\\Security\\Guard\\AbstractGuardAuthenticator -->
<g id="edge19" class="edge">
<title>\\AppBundle\\Security\\FormAuthenticator&#45;&gt;\\Symfony\\Component\\Security\\Guard\\AbstractGuardAuthenticator</title>
<path fill="none" stroke="#000000" d="M1390.6186,-806.6334C1374.7584,-802.182 1359.3578,-794.6303 1348.7924,-781.9959 1251.8519,-666.072 1392.3716,-211.1209 1284.7924,-104.9959 1277.8927,-98.1895 1267.1319,-92.6973 1253.6317,-88.2925"/>
<polygon fill="none" stroke="#000000" points="1254.443,-84.8829 1243.8615,-85.414 1252.4647,-91.5975 1254.443,-84.8829"/>
</g>
<!-- \\AppBundle\\Factory\\UserFactory -->
<g id="node50" class="node">
<title>\\AppBundle\\Factory\\UserFactory</title>
<polygon fill="none" stroke="#000000" points="1501.7924,-749.9959 1410.7924,-749.9959 1410.7924,-713.9959 1501.7924,-713.9959 1501.7924,-749.9959"/>
<text text-anchor="middle" x="1456.2924" y="-729.1959" font-family="Courier,monospace" font-size="11.00" fill="#000000">UserFactory</text>
</g>
<!-- \\AppBundle\\AppBundle -->
<g id="node51" class="node">
<title>\\AppBundle\\AppBundle</title>
<polygon fill="none" stroke="#000000" points="1494.7924,-695.9959 1417.7924,-695.9959 1417.7924,-659.9959 1494.7924,-659.9959 1494.7924,-695.9959"/>
<text text-anchor="middle" x="1456.2924" y="-675.1959" font-family="Courier,monospace" font-size="11.00" fill="#000000">AppBundle</text>
</g>
<!-- \\Symfony\\Component\\HttpKernel\\Bundle\\Bundle -->
<g id="node64" class="node">
<title>\\Symfony\\Component\\HttpKernel\\Bundle\\Bundle</title>
<ellipse fill="none" stroke="#000000" cx="950.722" cy="-23.9959" rx="237.4581" ry="18"/>
<text text-anchor="middle" x="950.722" y="-20.2959" font-family="Times,serif" font-size="14.00" fill="#c0c0c0">\Symfony\Component\HttpKernel\Bundle\Bundle</text>
</g>
<!-- \\AppBundle\\AppBundle&#45;&gt;\\Symfony\\Component\\HttpKernel\\Bundle\\Bundle -->
<g id="edge28" class="edge">
<title>\\AppBundle\\AppBundle&#45;&gt;\\Symfony\\Component\\HttpKernel\\Bundle\\Bundle</title>
<path fill="none" stroke="#000000" d="M1454.1022,-659.7716C1442.3647,-565.3529 1383.7238,-133.0182 1284.7924,-50.9959 1217.3036,4.9579 1113.5422,4.4027 1039.579,-5.5277"/>
<polygon fill="none" stroke="#000000" points="1038.7531,-2.1099 1029.3471,-6.9862 1039.741,-9.0399 1038.7531,-2.1099"/>
</g>
</g>
</svg>
